<svg width="8" height="8" viewBox="0 0 8 8" fill="none" xmlns="http://www.w3.org/2000/svg">
<path d="M2.11227 8H5.88773C7.05198 8 8 7.03333 8 5.85V2.15C7.98337 0.966667 7.03534 0 5.8711 0H2.11227C0.948025 0 0 0.966667 0 2.15V5.85C0 7.03333 0.948025 8 2.11227 8ZM6.32017 1.33333C6.58628 1.33333 6.8025 1.55 6.8025 1.83333C6.8025 2.11667 6.58628 2.33333 6.32017 2.33333C6.05405 2.33333 5.83784 2.11667 5.83784 1.83333C5.83784 1.55 6.05405 1.33333 6.32017 1.33333ZM3.99168 2C5.07277 2 5.93763 2.9 5.93763 4C5.93763 5.1 5.07277 6 3.99168 6C2.9106 6 2.04574 5.1 2.04574 4C2.04574 2.9 2.9106 2 3.99168 2Z" fill="#032A14"/>
</svg>
