<svg width="18" height="13" viewBox="0 0 18 13" fill="none" xmlns="http://www.w3.org/2000/svg">
<path d="M17.3077 4.15369C17.1241 4.15369 16.948 4.22663 16.8182 4.35646C16.6883 4.48629 16.6154 4.66238 16.6154 4.84599V10.3845C16.6154 10.5681 16.5424 10.7442 16.4126 10.874C16.2828 11.0038 16.1067 11.0768 15.9231 11.0768H2.07692C1.89331 11.0768 1.71722 11.0038 1.58739 10.874C1.45755 10.7442 1.38462 10.5681 1.38462 10.3845V4.84599C1.38462 4.66238 1.31168 4.48629 1.18184 4.35646C1.05201 4.22663 0.875919 4.15369 0.692308 4.15369C0.508696 4.15369 0.332605 4.22663 0.202772 4.35646C0.0729393 4.48629 0 4.66238 0 4.84599V10.3845C0.00048476 10.9351 0.219621 11.463 0.609231 11.8521C0.998356 12.2418 1.52627 12.4609 2.07692 12.4614H15.9231C16.4737 12.4609 17.0016 12.2418 17.3908 11.8521C17.7804 11.463 17.9995 10.9351 18 10.3845V4.84599C18 4.66238 17.9271 4.48629 17.7972 4.35646C17.6674 4.22663 17.4913 4.15369 17.3077 4.15369Z" fill="#C4C4C4"/>
<path d="M8.58445 8.16923C8.70428 8.25911 8.85004 8.30769 8.99983 8.30769C9.14963 8.30769 9.29538 8.25911 9.41522 8.16923L17.5914 2.03538C17.7189 1.9392 17.8093 1.80187 17.8471 1.64667C17.885 1.49147 17.868 1.32795 17.7991 1.18385C17.696 0.970838 17.5579 0.776611 17.3906 0.609231C17.0015 0.219621 16.4736 0.00048476 15.9229 0H2.07676C1.52611 0.00048476 0.998189 0.219621 0.609064 0.609231C0.441772 0.776611 0.303706 0.970838 0.200603 1.18385C0.13166 1.32795 0.114676 1.49147 0.15253 1.64667C0.190384 1.80187 0.280745 1.9392 0.408295 2.03538L8.58445 8.16923ZM2.07676 1.38462H15.9229C15.9871 1.3745 16.0525 1.3745 16.1168 1.38462L8.99983 6.75L1.88291 1.38462C1.94713 1.3745 2.01254 1.3745 2.07676 1.38462Z" fill="#C4C4C4"/>
</svg>
