<svg width="81" height="52" viewBox="0 0 81 52" fill="none" xmlns="http://www.w3.org/2000/svg">
<path d="M0.201983 34.5191C1.31185 45.1404 8.85891 52 18.8477 52C28.8364 52 37.0494 44.034 37.0494 33.8553C37.0494 24.1192 28.3925 15.7106 18.8477 15.7106C13.0764 15.7106 7.30511 19.0298 4.19749 23.4553C3.97552 15.4894 7.08313 8.18723 15.0741 4.86809C17.2939 3.98298 19.7356 3.54042 22.1773 3.54042C25.9508 3.54042 29.7243 4.42553 33.2759 6.63829L35.0517 3.31915C31.0562 1.10638 26.6167 0 21.9553 0C12.6324 0 4.19749 5.53191 1.53382 14.8255C-0.0199898 20.1362 -0.241962 29.4298 0.201983 34.5191ZM44.1526 34.5191C45.2624 45.1404 52.8095 52 62.7983 52C73.009 52 81 44.034 81 33.8553C81 24.1192 72.3431 15.7106 63.0202 15.7106C57.027 15.7106 51.2557 19.0298 48.1481 23.4553C47.9261 15.4894 51.0337 8.18723 59.0247 4.86809C61.2444 3.98298 63.6861 3.54042 66.1278 3.54042C69.9014 3.54042 73.6749 4.42553 77.2265 6.63829L79.0023 3.31915C75.0068 1.10638 70.5673 0 65.9059 0C56.583 0 48.1481 5.53191 45.4844 14.8255C43.9306 20.1362 43.7086 29.4298 44.1526 34.5191Z" fill="white" fill-opacity="0.28"/>
</svg>
