<svg width="18" height="18" viewBox="0 0 18 18" fill="none" xmlns="http://www.w3.org/2000/svg">
<path d="M8.2086 10.5811L7.41797 9.79042L16.2867 0.956055L17.043 1.7123L8.2086 10.5811Z" fill="#C4C4C4"/>
<path d="M17.2492 6.62813H16.0805V1.91875H11.3711V0.75H17.2492V6.62813Z" fill="#C4C4C4"/>
<path d="M14.2937 17.25H2.50313C1.54063 17.25 0.75 16.4594 0.75 15.4969V3.70625C0.75 2.74375 1.54063 1.95312 2.50313 1.95312H9V3.12187H2.50313C2.19375 3.12187 1.91875 3.39688 1.91875 3.70625V15.4969C1.91875 15.8062 2.19375 16.0813 2.50313 16.0813H14.2937C14.6031 16.0813 14.8781 15.8062 14.8781 15.4969V9H16.0469V15.4969C16.0812 16.4594 15.2906 17.25 14.2937 17.25Z" fill="#C4C4C4"/>
</svg>
