<svg width="14" height="16" viewBox="0 0 14 16" fill="none" xmlns="http://www.w3.org/2000/svg">
<g clip-path="url(#clip0_125_171)">
<path d="M6.99043 0.631836C3.45125 0.631836 0.582031 3.74437 0.582031 7.58368C0.582031 11.4232 3.45125 14.5355 6.99043 14.5355C10.5298 14.5355 13.3988 11.4232 13.3988 7.58368C13.3988 3.74437 10.5298 0.631836 6.99043 0.631836ZM6.99043 13.2716C4.09471 13.2716 1.74719 10.725 1.74719 7.58368C1.74719 4.4424 4.09471 1.89581 6.99043 1.89581C9.88615 1.89581 12.2337 4.4424 12.2337 7.58368C12.2337 10.725 9.88615 13.2716 6.99043 13.2716Z" fill="#818181"/>
<path d="M7.57337 7.32226V3.79214C7.57337 3.44313 7.31252 3.16016 6.99079 3.16016C6.66905 3.16016 6.4082 3.44313 6.4082 3.79214V7.58406C6.4082 7.58548 6.40864 7.5869 6.40864 7.58832C6.40879 7.6283 6.41243 7.66827 6.41971 7.70761C6.4232 7.72705 6.42976 7.74458 6.43486 7.76354C6.44054 7.7844 6.44491 7.80557 6.45263 7.82595C6.46107 7.84775 6.47243 7.86766 6.48292 7.8882C6.49078 7.904 6.49705 7.9198 6.50622 7.93481C6.52763 7.96973 6.55196 8.00243 6.57919 8.03166L8.22659 9.81892C8.45409 10.0657 8.8233 10.0657 9.05065 9.81892C9.27815 9.57213 9.27815 9.17161 9.05065 8.92529L7.57337 7.32226Z" fill="#818181"/>
</g>
<defs>
<clipPath id="clip0_125_171">
<rect width="13.982" height="15.1677" fill="white"/>
</clipPath>
</defs>
</svg>
