<svg width="24" height="24" viewBox="0 0 24 24" fill="none" xmlns="http://www.w3.org/2000/svg">
<path d="M12 24C9.62663 24 7.30655 23.2962 5.33316 21.9776C3.35977 20.6591 1.8217 18.7849 0.913451 16.5922C0.00519941 14.3995 -0.232441 11.9867 0.230582 9.65892C0.693604 7.33115 1.83649 5.19295 3.51472 3.51472C5.19295 1.83649 7.33115 0.693604 9.65892 0.230582C11.9867 -0.232441 14.3995 0.00519941 16.5922 0.913451C18.7849 1.8217 20.6591 3.35977 21.9776 5.33316C23.2962 7.30655 24 9.62663 24 12C24 15.1826 22.7357 18.2348 20.4853 20.4853C18.2348 22.7357 15.1826 24 12 24ZM12 1.84616C9.99176 1.84616 8.02862 2.44167 6.35883 3.55739C4.68904 4.67311 3.38759 6.25892 2.61907 8.11429C1.85055 9.96967 1.64947 12.0113 2.04126 13.9809C2.43305 15.9506 3.40011 17.7598 4.82015 19.1799C6.24019 20.5999 8.04943 21.5669 10.0191 21.9587C11.9887 22.3505 14.0303 22.1494 15.8857 21.3809C17.7411 20.6124 19.3269 19.311 20.4426 17.6412C21.5583 15.9714 22.1538 14.0082 22.1538 12C22.1538 9.30703 21.0841 6.72436 19.1799 4.82015C17.2756 2.91594 14.693 1.84616 12 1.84616Z" fill="#2F2F2F"/>
<path d="M12.0002 12.9231C11.0873 12.9231 10.195 12.6525 9.43598 12.1453C8.67699 11.6382 8.08542 10.9173 7.73609 10.074C7.38677 9.23065 7.29537 8.30265 7.47345 7.40735C7.65154 6.51205 8.09111 5.68967 8.73658 5.0442C9.38206 4.39873 10.2044 3.95915 11.0997 3.78107C11.995 3.60298 12.923 3.69438 13.7664 4.04371C14.6097 4.39304 15.3306 4.9846 15.8377 5.7436C16.3448 6.50259 16.6155 7.39493 16.6155 8.30777C16.6155 9.53184 16.1293 10.7058 15.2637 11.5713C14.3982 12.4369 13.2242 12.9231 12.0002 12.9231ZM12.0002 5.53854C11.4524 5.53854 10.917 5.70095 10.4616 6.00524C10.0063 6.30952 9.65131 6.74202 9.44172 7.24803C9.23212 7.75404 9.17728 8.31084 9.28413 8.84802C9.39098 9.38519 9.65473 9.87862 10.042 10.2659C10.4293 10.6532 10.9227 10.9169 11.4599 11.0238C11.9971 11.1306 12.5539 11.0758 13.0599 10.8662C13.5659 10.6566 13.9984 10.3017 14.3027 9.84627C14.607 9.39087 14.7694 8.85547 14.7694 8.30777C14.7694 7.57332 14.4776 6.86896 13.9583 6.34963C13.439 5.83029 12.7346 5.53854 12.0002 5.53854Z" fill="#2F2F2F"/>
<path d="M20.8151 19.3847C20.687 19.3855 20.5601 19.3597 20.4425 19.3089C20.3249 19.258 20.2191 19.1832 20.132 19.0893C19.1522 18.0206 17.9613 17.1669 16.6346 16.5821C15.3078 15.9974 13.8742 15.6944 12.4243 15.6924H11.5751C8.87251 15.6865 6.27373 16.7327 4.32893 18.6093C4.14924 18.7576 3.92014 18.8324 3.68757 18.8188C3.455 18.8052 3.23618 18.7042 3.07499 18.536C2.9138 18.3678 2.82217 18.1449 2.81848 17.9119C2.81478 17.679 2.89931 17.4533 3.05509 17.2801C5.34051 15.0711 8.39661 13.8394 11.5751 13.8462H12.4243C14.1285 13.8501 15.8135 14.2063 17.3734 14.8926C18.9334 15.5788 20.3346 16.5802 21.4889 17.8339C21.6109 17.9654 21.6919 18.1296 21.7221 18.3064C21.7522 18.4832 21.7302 18.665 21.6587 18.8295C21.5872 18.994 21.4694 19.1341 21.3196 19.2327C21.1697 19.3313 20.9944 19.3841 20.8151 19.3847Z" fill="#2F2F2F"/>
</svg>
