<svg width="20" height="44" viewBox="0 0 20 44" fill="none" xmlns="http://www.w3.org/2000/svg">
<path d="M1.86 32.282L1.38941 33.1644L2.43423 33.7216L2.80868 32.5982L1.86 32.282ZM10.292 9.466H11.292L9.31482 9.25357L10.292 9.466ZM10.292 44H9.292L9.292 45H10.292L10.292 44ZM19.096 44V45H20.096V44H19.096ZM19.096 0.785998L20.096 0.785998V-0.214002L19.096 -0.214002V0.785998ZM10.292 0.785998L10.292 -0.214002H9.292L9.292 0.785998H10.292ZM0.93 31.786L0.0979505 31.2313L-0.513989 32.1492L0.459412 32.6684L0.93 31.786ZM2.80868 32.5982C2.785 32.6693 2.75461 32.7265 2.78333 32.6669C2.79387 32.6451 2.81026 32.6118 2.83377 32.5643C2.85694 32.5175 2.8852 32.4607 2.91898 32.3927C2.95259 32.3251 2.99123 32.2473 3.0345 32.16C3.20778 31.8101 3.45488 31.3074 3.75739 30.6735C4.36227 29.4061 5.18854 27.6148 6.09098 25.4701C7.89303 21.1873 10.0109 15.4666 11.2692 9.67843L9.31482 9.25357C8.09313 14.8734 6.02597 20.4677 4.24752 24.6944C3.35971 26.8044 2.54686 28.5665 1.95242 29.8121C1.65528 30.4347 1.41267 30.9283 1.24228 31.2723C1.19964 31.3584 1.1615 31.4352 1.12801 31.5025C1.09469 31.5696 1.06554 31.6282 1.04156 31.6766C1.01793 31.7243 0.997417 31.766 0.981877 31.7982C0.974281 31.8139 0.965788 31.8317 0.957922 31.8489C0.954043 31.8574 0.948536 31.8696 0.942597 31.8835C0.939121 31.8917 0.925144 31.9243 0.911317 31.9658L2.80868 32.5982ZM9.292 9.466L9.292 44H11.292L11.292 9.466H9.292ZM10.292 45H19.096V43H10.292L10.292 45ZM20.096 44L20.096 0.785998L18.096 0.785998L18.096 44H20.096ZM19.096 -0.214002L10.292 -0.214002L10.292 1.786L19.096 1.786V-0.214002ZM9.292 0.785998C9.292 7.23027 7.03826 14.793 4.72369 20.834C3.57182 23.8404 2.41568 26.4427 1.54022 28.304C1.10263 29.2343 0.735731 29.9784 0.475314 30.4938C0.345061 30.7517 0.241816 30.9516 0.170022 31.0884C0.134014 31.1571 0.106612 31.2085 0.0880886 31.2428C0.0542561 31.3054 0.0692446 31.2744 0.0979505 31.2313L1.76205 32.3407C1.79851 32.286 1.83904 32.2095 1.84744 32.1939C1.87115 32.1501 1.90266 32.0908 1.94113 32.0175C2.01828 31.8704 2.12622 31.6614 2.26044 31.3957C2.52896 30.8642 2.90412 30.1033 3.35003 29.1552C4.24157 27.2597 5.41818 24.6114 6.59131 21.5495C8.92674 15.454 11.292 7.60973 11.292 0.785998H9.292ZM0.459412 32.6684L1.38941 33.1644L2.33059 31.3996L1.40059 30.9036L0.459412 32.6684Z" fill="#2F2F2F"/>
</svg>
