<svg width="34" height="45" viewBox="0 0 34 45" fill="none" xmlns="http://www.w3.org/2000/svg">
<path d="M0.17 14.372H-0.83L-0.83 15.2836L0.0776808 15.3677L0.17 14.372ZM9.532 15.24L9.43968 16.2357L10.532 16.337V15.24H9.532ZM15.05 28.384L15.3757 29.3295L15.3776 29.3288L15.05 28.384ZM1.906 45H0.906V46H1.906V45ZM33.898 45V46H34.898V45H33.898ZM33.898 36.196H34.898V35.196H33.898V36.196ZM4.696 36.196L3.81919 35.7152L3.00712 37.196H4.696V36.196ZM15.36 29.376L15.6837 30.3222L15.6862 30.3213L15.36 29.376ZM0.0776808 15.3677L9.43968 16.2357L9.62432 14.2443L0.262319 13.3763L0.0776808 15.3677ZM10.532 15.24C10.532 12.2033 10.4216 9.0829 11.2175 6.68077C11.6032 5.51669 12.1811 4.60032 13.0324 3.96672C13.881 3.33509 15.1014 2.91 16.91 2.91V0.909997C14.7816 0.909997 13.1112 1.4149 11.8383 2.36234C10.568 3.3078 9.79354 4.61956 9.319 6.05172C8.39443 8.84209 8.532 12.3867 8.532 15.24L10.532 15.24ZM16.91 2.91C19.1475 2.91 20.7955 3.74209 21.9412 5.53972C23.1379 7.41732 23.846 10.4437 23.846 14.93H25.846C25.846 10.3023 25.1281 6.81868 23.6278 4.46477C22.0765 2.0309 19.7565 0.909997 16.91 0.909997V2.91ZM23.846 14.93C23.846 19.3328 23.3095 21.7304 22.0403 23.3698C20.7554 25.0295 18.583 26.1004 14.7224 27.4392L15.3776 29.3288C19.205 28.0016 21.9307 26.7785 23.6217 24.5942C25.3285 22.3896 25.846 19.3932 25.846 14.93H23.846ZM14.7243 27.4385C11.0861 28.692 7.56399 29.9013 5.00883 32.423C2.39106 35.0064 0.906 38.8235 0.906 45H2.906C2.906 39.1485 4.30394 35.9286 6.41367 33.8465C8.58601 31.7027 11.6359 30.618 15.3757 29.3295L14.7243 27.4385ZM1.906 46L33.898 46V44L1.906 44L1.906 46ZM34.898 45V36.196H32.898V45H34.898ZM33.898 35.196L4.696 35.196V37.196L33.898 37.196V35.196ZM5.57281 36.6768C7.46442 33.2274 10.8976 31.9595 15.6837 30.3222L15.0363 28.4298C10.3984 30.0165 6.14358 31.4766 3.81919 35.7152L5.57281 36.6768ZM15.6862 30.3213C19.1286 29.1332 23.8638 27.6987 27.7027 25.4321C31.5569 23.1564 34.774 19.8837 34.774 14.93H32.774C32.774 18.8423 30.2871 21.5836 26.6858 23.7099C23.0692 25.8453 18.5974 27.2008 15.0338 28.4307L15.6862 30.3213ZM34.774 14.93C34.774 10.0538 33.6589 6.20368 30.6967 3.6139C27.7704 1.0555 23.2511 -0.0820017 16.91 -0.0820017V1.918C23.0929 1.918 27.0056 3.0435 29.3803 5.1196C31.7191 7.16432 32.774 10.3202 32.774 14.93H34.774ZM16.91 -0.0820017C11.9037 -0.0820017 7.47572 0.912119 4.27532 3.25796C1.02348 5.64151 -0.83 9.32451 -0.83 14.372H1.17C1.17 9.87149 2.78852 6.82749 5.45768 4.87104C8.17828 2.87688 12.1203 1.918 16.91 1.918V-0.0820017Z" fill="#2F2F2F"/>
</svg>
