<svg width="41" height="46" viewBox="0 0 41 46" fill="none" xmlns="http://www.w3.org/2000/svg">
<path d="M0.232 37.994L-0.187058 37.086L-1.21947 37.5625L-0.614984 38.5256L0.232 37.994ZM25.59 21.502L25.4079 20.5187L25.59 22.502V21.502ZM2.278 13.628H1.278L1.278 14.4666L2.10383 14.6127L2.278 13.628ZM11.392 15.24L11.2178 16.2247L12.392 16.4324V15.24H11.392ZM15.298 21.316V20.316H14.298V21.316H15.298ZM15.298 22.06H14.298V23.06H15.298V22.06ZM1.038 37.622L1.85548 37.046L1.37554 36.3648L0.618942 36.714L1.038 37.622ZM-0.614984 38.5256C3.29606 44.7568 11.1425 46.992 16.166 46.992V44.992C11.5175 44.992 4.48394 42.8872 1.07898 37.4624L-0.614984 38.5256ZM16.166 46.992C24.0643 46.992 30.2845 46.6346 34.5281 44.7094C36.6929 43.7273 38.3806 42.3237 39.5116 40.3407C40.6339 38.373 41.16 35.9188 41.16 32.91H39.16C39.16 35.6982 38.6709 37.7778 37.7743 39.3499C36.8864 40.9067 35.5516 42.0489 33.7019 42.8881C29.9165 44.6054 24.1397 44.992 16.166 44.992V46.992ZM41.16 32.91C41.16 28.9347 39.1411 25.801 36.2006 23.6959C33.2787 21.6041 29.4251 20.502 25.59 20.502V22.502C29.0709 22.502 32.5023 23.5079 35.0364 25.3221C37.5519 27.123 39.16 29.6933 39.16 32.91H41.16ZM25.7721 22.4853C28.2529 22.0259 31.241 21.4432 33.5954 19.9243C36.047 18.3426 37.75 15.7919 37.75 11.644L35.75 11.644C35.75 15.1221 34.384 17.0354 32.5111 18.2437C30.541 19.5148 27.9491 20.0481 25.4079 20.5187L25.7721 22.4853ZM37.75 11.644C37.75 9.51833 37.3459 7.67409 36.4918 6.11376C35.6344 4.54734 34.3573 3.32907 32.7121 2.40897C29.469 0.595172 24.7534 -0.0820017 18.77 -0.0820017V1.918C24.6906 1.918 28.965 2.60482 31.7359 4.15452C33.0977 4.91618 34.0836 5.87953 34.7374 7.07405C35.3946 8.27465 35.75 9.77067 35.75 11.644L37.75 11.644ZM18.77 -0.0820017C13.6647 -0.0820017 9.30232 0.960974 6.1909 3.23374C3.03164 5.54144 1.278 9.03375 1.278 13.628H3.278C3.278 9.60424 4.77936 6.74155 7.3706 4.84876C10.0097 2.92102 13.8933 1.918 18.77 1.918V-0.0820017ZM2.10383 14.6127L11.2178 16.2247L11.5662 14.2553L2.45217 12.6433L2.10383 14.6127ZM12.392 15.24C12.392 13.7214 12.3417 12.2041 12.3934 10.687C12.4445 9.18267 12.5953 7.78951 12.9664 6.60268C13.334 5.4271 13.9021 4.50246 14.762 3.86181C15.6215 3.22142 16.8784 2.786 18.77 2.786V0.785998C16.5696 0.785998 14.8582 1.29607 13.5671 2.258C12.2764 3.21966 11.5115 4.55414 11.0576 6.00581C10.6072 7.44623 10.448 9.04845 10.3945 10.619C10.3415 12.1766 10.392 13.8135 10.392 15.24H12.392ZM18.77 2.786C22.5974 2.786 24.2347 3.4264 25.0666 4.54502C25.5023 5.13092 25.7989 5.95015 25.9766 7.13895C26.1546 8.32954 26.202 9.8035 26.202 11.644H28.202C28.202 9.79549 28.1564 8.1927 27.9546 6.84323C27.7526 5.49197 27.3827 4.30783 26.6714 3.35148C25.2093 1.38559 22.6306 0.785998 18.77 0.785998V2.786ZM26.202 11.644C26.202 16.3646 25.1737 18.2976 23.6379 19.2286C22.8159 19.7269 21.7382 20.0124 20.3227 20.1617C18.9059 20.311 17.249 20.316 15.298 20.316V22.316C17.222 22.316 18.9906 22.3132 20.5324 22.1506C22.0754 21.988 23.4894 21.6574 24.6746 20.9389C27.1533 19.4364 28.202 16.5334 28.202 11.644H26.202ZM14.298 21.316V22.06H16.298V21.316H14.298ZM15.298 23.06H18.46V21.06H15.298V23.06ZM18.46 23.06C22.899 23.06 25.4311 23.8229 26.8949 25.2673C28.352 26.7051 28.992 29.0573 28.992 32.91H30.992C30.992 28.9507 30.361 25.8779 28.2996 23.8437C26.2449 21.8161 23.011 21.06 18.46 21.06V23.06ZM28.992 32.91C28.992 36.8766 28.3248 39.5777 26.5596 41.3297C24.7862 43.0897 21.6703 44.124 16.166 44.124V46.124C21.8218 46.124 25.6188 45.0813 27.9684 42.7493C30.3262 40.4093 30.992 37.0034 30.992 32.91H28.992ZM16.166 44.124C11.6772 44.124 5.46024 42.1625 1.85548 37.046L0.220518 38.198C4.30376 43.9935 11.2308 46.124 16.166 46.124V44.124ZM0.618942 36.714L-0.187058 37.086L0.651058 38.902L1.45706 38.53L0.618942 36.714Z" fill="#2F2F2F"/>
</svg>
