<svg width="6" height="11" viewBox="0 0 6 11" fill="none" xmlns="http://www.w3.org/2000/svg">
<path d="M0.779169 0.780283C0.852267 0.77986 0.92473 0.79387 0.992403 0.821512C1.06007 0.849152 1.12162 0.88988 1.17352 0.941358L5.61695 5.38479C5.66901 5.43642 5.71033 5.49785 5.73853 5.56554C5.76673 5.63322 5.78125 5.70582 5.78125 5.77914C5.78125 5.85247 5.76673 5.92506 5.73853 5.99275C5.71033 6.06043 5.66901 6.12186 5.61695 6.1735L1.17352 10.6169C1.06893 10.7215 0.927082 10.7803 0.77917 10.7803C0.631258 10.7803 0.489406 10.7215 0.384816 10.6169C0.280227 10.5123 0.221469 10.3705 0.221469 10.2226C0.221469 10.0747 0.280227 9.93281 0.384816 9.82822L4.43945 5.77914L0.384815 1.73007C0.332756 1.67843 0.291434 1.617 0.263236 1.54932C0.235037 1.48163 0.22052 1.40904 0.22052 1.33571C0.22052 1.26239 0.235037 1.18979 0.263236 1.12211C0.291434 1.05442 0.332756 0.992992 0.384815 0.941358C0.436715 0.88988 0.498264 0.849152 0.565936 0.821512C0.633608 0.79387 0.706071 0.77986 0.779169 0.780283Z" fill="#2F2F2F"/>
</svg>
