<svg width="188" height="80" viewBox="0 0 188 80" fill="none" xmlns="http://www.w3.org/2000/svg">
<rect width="188" height="80" rx="10" fill="#032A14"/>
<path d="M49.8134 63.2979C44.5164 63.2979 36.2619 61.8109 36.2619 46.1686C36.2619 42.0914 36.2269 39.3901 36.1965 37.5405C35.5542 37.6483 34.9302 37.5884 34.4373 37.4906V38.3124C34.4373 40.0283 34.1439 41.5398 33.6985 42.4418C33.2525 41.5398 32.96 40.0283 32.96 38.3124V36.4358C32.96 34.7216 33.2525 33.2084 33.6985 32.308C34.1306 33.1811 34.4136 34.6351 34.4307 36.2854C34.8819 36.4125 35.4123 36.5104 36.1745 36.2681C36.1037 32.2415 36.1477 33.8432 37.1655 29.8286C37.7719 27.4363 38.433 25.4606 39.2854 23.8502C39.199 23.4762 39.0547 23.0343 38.8018 22.6031C38.522 22.1247 38.1155 21.6881 37.7557 21.3507C35.1267 23.5041 32.9591 26.9172 31.1435 32.4491C30.5405 34.2858 29.2357 35.596 25.623 36.1191C27.1288 37.6929 29.2352 40.4863 29.5375 43.8975C30.1283 50.5775 32.4411 56.3183 35.6546 59.2902C38.8665 62.2613 42.5815 63.8423 48.0293 63.8423C48.9972 63.8423 52.524 63.2979 49.8134 63.2979Z" fill="white"/>
<path d="M26.205 52.1276C26.205 53.1889 25.2164 54.0493 23.9972 54.0493C22.7776 54.0493 21.7891 53.1889 21.7891 52.1276C21.7891 51.066 22.7776 50.2042 23.9972 50.2042C25.2164 50.2042 26.205 51.066 26.205 52.1276Z" fill="white"/>
<path d="M36.9435 60.9421L36.8407 60.8669C31.5593 64.2953 25.9536 63.4016 22.5383 61.3972C20.486 60.1916 19.0567 58.2124 18.5141 55.8246C17.9935 53.5327 18.3834 51.2218 19.5564 49.6429C20.7375 48.0547 23.0196 47.1662 25.2462 47.4337C27.0378 47.6492 28.3654 48.5787 28.889 49.9832C29.324 51.1522 29.2904 52.1971 28.7895 53.0892C28.2348 54.0767 27.2269 54.6635 26.4681 54.8836C25.4963 55.1664 24.3155 55.037 23.5306 54.5642C22.8751 54.1682 22.5089 53.5727 22.4423 52.7929C22.3892 52.1649 22.5903 51.7201 23.041 51.4706C23.5497 51.1917 24.2929 51.2218 24.6673 51.4254L25.1358 50.7282C24.5302 50.3978 23.4234 50.3037 22.5661 50.7766C22.1366 51.0144 21.4318 51.6005 21.5388 52.8553C21.6261 53.8816 22.1406 54.7066 23.0254 55.241C24.0455 55.8563 25.5043 56.0211 26.7467 55.6598C27.6795 55.3887 28.9178 54.6681 29.5983 53.4571C30.2125 52.3637 30.2634 51.108 29.7486 49.724C29.111 48.0131 27.5139 46.8839 25.3665 46.6258C22.8126 46.3188 20.1724 47.3484 18.8032 49.1904C17.4983 50.9455 17.0581 53.4867 17.6261 55.9873C18.2172 58.5906 19.7862 60.7539 22.0432 62.0793C23.947 63.1973 26.4825 64 29.2714 64C31.92 64 34.7959 63.2625 37.5749 61.3967C37.3772 61.2589 37.1658 61.1058 36.9435 60.9421Z" fill="white"/>
<path d="M45.9737 36.562C44.7288 37.5662 43.4537 38.3155 41.0971 37.6174C39.8928 37.2601 39.5954 36.7796 38.7369 36.5128C38.5097 36.6539 38.2232 36.8109 37.9495 36.954C41.1953 38.1924 41.5592 41.855 41.9203 45.5696C42.4224 50.7271 41.9596 55.0832 39.8509 58.3216C39.0973 59.4814 36.9413 60.4344 37.2629 59.934C38.49 60.1464 37.8454 61.6044 39.5699 61.1731C41.9596 60.5755 46.0738 58.1885 46.8686 51.7414C47.5353 46.358 47.4665 40.1036 45.9737 36.562Z" fill="white"/>
<path d="M53.2414 27.3023C53.5751 28.0769 56.0134 27.2105 55.2075 25.3433C54.9063 24.6439 53.692 23.7329 52.2076 23.9891C50.237 24.3298 48.8888 26.219 50.001 28.4463C51.1132 30.6715 53.8755 31.5393 56.8266 30.4552C60.4178 29.1363 61.4619 23.5925 56.7082 20.1993C51.5468 16.5134 43.6312 18.4452 41.0664 20.8428" stroke="white" stroke-width="1.63316"/>
<path d="M51.4082 26.4346C51.4082 27.496 52.3968 28.3564 53.6148 28.3564C54.8351 28.3564 55.8245 27.496 55.8245 26.4346C55.8245 25.3726 54.8351 24.5128 53.6148 24.5128C52.3968 24.5128 51.4082 25.3726 51.4082 26.4346Z" fill="white"/>
<path d="M53.4043 52.1276C53.4043 53.1889 54.3937 54.0493 55.6132 54.0493C56.8319 54.0493 57.8205 53.1889 57.8205 52.1276C57.8205 51.066 56.8319 50.2042 55.6132 50.2042C54.3937 50.2042 53.4043 51.066 53.4043 52.1276Z" fill="white"/>
<path d="M54.7086 51.0762C55.5988 50.593 57.7914 50.7999 57.6197 52.8236C57.4184 55.1836 54.7574 55.7804 53.0022 55.2712C51.497 54.834 49.0869 53.0869 50.2916 49.8532C51.7013 46.0677 57.5701 46.1607 60.0158 49.4516C62.4615 52.7409 60.8475 58.9285 56.1035 61.7115C51.7886 64.2457 44.7332 64.5831 39.9637 60.078C35.8467 56.1878 35.5313 48.5839 35.7542 43.6487" stroke="white" stroke-width="1.63316"/>
<path d="M16.8809 19.6022C17.7391 18.6106 20.0559 18.6845 21.0982 19.7446C22.7835 21.4588 19.9628 23.6488 21.1584 24.0247C20.2984 25.2798 20.1015 27.7852 20.8392 28.5578C21.3904 29.1381 22.0122 30.1509 23.0135 30.7857C23.3468 30.9947 23.5185 31.2116 23.948 31.3081C20.9433 30.9142 19.4341 28.6164 19.1881 26.9986C18.7363 24.0134 19.306 23.3234 19.2436 21.7981C19.1818 20.3255 17.9857 19.6973 16.8809 19.6022Z" fill="white"/>
<path d="M18.959 38.5375C21.0565 37.8068 23.8857 39.972 22.9839 43.018C21.8895 46.7175 17.7343 48.2855 18.3884 50.3106C17.0969 52.5657 17.7499 53.7778 18.0861 55.5256C18.5176 57.7715 20.3567 60.5726 22.6648 62.3374C19.7271 61.1827 16.1621 56.9813 16.1621 51.9899C16.1621 47.2317 19.6213 44.5561 20.1471 42.2512C20.4052 41.1202 20.4324 40.0349 18.959 38.5375Z" fill="white"/>
<path d="M60.0934 38.445C57.9193 37.7164 54.9816 39.8812 55.9169 42.927C57.052 46.6262 61.3662 48.1947 60.6869 50.2194C62.0292 52.4739 61.3499 53.687 61.0006 55.4343C60.5537 57.6794 58.6438 60.4821 56.2477 62.2461C59.2964 61.0896 62.9993 56.8905 62.9993 51.8991C62.9993 47.1406 59.4074 44.4653 58.8613 42.1589C58.5949 41.0294 58.5653 39.9442 60.0934 38.445Z" fill="white"/>
<path d="M55.2874 31.0954C58.1438 33.6614 52.9587 35.3417 52.7085 36.8696C52.525 37.9915 53.1681 38.2324 54.3661 38.9548C51.142 40.4783 48.2546 37.3513 49.8522 34.464C51.1686 32.0836 54.5511 32.1375 53.8148 31.0954C55.7795 31.2026 55.2874 31.0954 55.2874 31.0954Z" fill="white"/>
<path d="M28.2125 26.4346C28.2125 27.496 27.2236 28.3564 26.005 28.3564C24.7848 28.3564 23.7969 27.496 23.7969 26.4346C23.7969 25.3726 24.7848 24.5128 26.005 24.5128C27.2236 24.5128 28.2125 25.3726 28.2125 26.4346Z" fill="white"/>
<path d="M39.8461 21.6499L40.1179 22.4917C41.6039 20.3962 43.629 19.1199 46.7009 18.5569C49.1724 18.1037 48.0055 17.7703 48.0055 17.7703C44.3462 18.1376 41.2532 18.875 38.6055 20.7123L39.8461 21.6499Z" fill="white"/>
<path d="M26.5605 18.6165C33.9021 17.5511 36.5727 19.7624 36.8661 20.0346C40.4094 23.3092 40.3423 25.7022 40.3423 28.8172C40.3423 31.2986 39.9925 33.474 38.1197 35.3306C36.3414 37.0927 34.5452 36.5211 34.2379 36.402C33.8946 36.2689 33.846 35.9594 34.2038 35.7359C34.1874 35.5788 34.1784 35.3858 34.1351 35.1503C32.9273 35.2541 32.8615 36.8665 33.994 37.1885C37.4578 38.1701 39.5098 35.487 41.2427 33.8872C42.7972 32.4499 44.0241 31.0584 45.8058 31.1057C46.0738 30.1055 46.432 28.561 45.774 25.81C44.5441 20.6574 40.8733 18.2591 35.9185 17.6323C29.0826 16.7665 26.5605 18.6165 26.5605 18.6165Z" fill="white"/>
<path d="M26.3787 27.3023C26.046 28.0769 23.6072 27.2105 24.4123 25.3432C24.7132 24.6438 25.9281 23.7328 27.4106 23.989C29.3814 24.3298 30.731 26.219 29.6185 28.4462C28.5079 30.6715 25.5046 31.9412 22.7938 30.4552C20.3085 29.093 19.1922 24.4176 24.0983 20.4928C29.0163 16.5613 35.9905 18.4452 38.5529 20.8428" stroke="white" stroke-width="1.63316"/>
<path d="M36.3281 35.3397C36.3281 35.5061 36.3524 35.8661 36.3524 35.9579C36.5074 35.9972 36.7464 36.0757 36.7464 36.0757C36.7464 36.0757 37.189 35.8508 37.3364 35.7376C37.2075 35.6644 36.8123 35.4548 36.3281 35.3397Z" fill="white"/>
<rect width="1" height="46" transform="matrix(-1 0 0 1 78 17)" fill="white"/>
<path d="M97.616 36.18C96.692 36.18 95.816 36.018 94.988 35.694C94.16 35.358 93.524 34.89 93.08 34.29C93.008 34.134 92.978 33.972 92.99 33.804C93.002 33.624 93.08 33.474 93.224 33.354C93.368 33.246 93.524 33.204 93.692 33.228C93.872 33.252 94.022 33.342 94.142 33.498C94.538 33.918 95.036 34.254 95.636 34.506C96.236 34.746 96.896 34.866 97.616 34.866C98.6 34.866 99.41 34.614 100.046 34.11C100.682 33.594 101 32.886 101 31.986C101 31.098 100.73 30.408 100.19 29.916C99.662 29.424 98.978 29.178 98.138 29.178H97.022C96.83 29.178 96.674 29.124 96.554 29.016C96.434 28.896 96.374 28.746 96.374 28.566C96.374 28.374 96.434 28.224 96.554 28.116C96.674 27.996 96.824 27.936 97.004 27.936H98.012C98.696 27.936 99.26 27.714 99.704 27.27C100.16 26.826 100.388 26.208 100.388 25.416C100.388 24.636 100.118 24.054 99.578 23.67C99.038 23.274 98.342 23.076 97.49 23.076C96.854 23.076 96.278 23.196 95.762 23.436C95.246 23.676 94.826 24.012 94.502 24.444C94.37 24.624 94.214 24.738 94.034 24.786C93.866 24.834 93.698 24.804 93.53 24.696C93.374 24.6 93.272 24.468 93.224 24.3C93.188 24.12 93.23 23.952 93.35 23.796C93.794 23.208 94.352 22.728 95.024 22.356C95.708 21.972 96.53 21.78 97.49 21.78C98.33 21.78 99.068 21.936 99.704 22.248C100.352 22.548 100.856 22.968 101.216 23.508C101.588 24.048 101.774 24.66 101.774 25.344C101.774 26.1 101.558 26.754 101.126 27.306C100.694 27.846 100.19 28.236 99.614 28.476C100.094 28.62 100.544 28.854 100.964 29.178C101.384 29.49 101.72 29.886 101.972 30.366C102.236 30.834 102.368 31.386 102.368 32.022C102.368 32.826 102.164 33.54 101.756 34.164C101.348 34.788 100.784 35.28 100.064 35.64C99.356 36 98.54 36.18 97.616 36.18ZM109.545 36.09C108.573 36.09 107.709 35.88 106.953 35.46C106.209 35.028 105.621 34.434 105.189 33.678C104.769 32.922 104.559 32.058 104.559 31.086C104.559 30.102 104.757 29.238 105.153 28.494C105.561 27.738 106.119 27.144 106.827 26.712C107.535 26.28 108.351 26.064 109.275 26.064C110.187 26.064 110.979 26.274 111.651 26.694C112.335 27.102 112.863 27.672 113.235 28.404C113.607 29.136 113.793 29.97 113.793 30.906C113.793 31.098 113.733 31.254 113.613 31.374C113.493 31.482 113.337 31.536 113.145 31.536H105.873C105.945 32.184 106.143 32.76 106.467 33.264C106.791 33.756 107.217 34.146 107.745 34.434C108.273 34.71 108.873 34.848 109.545 34.848C109.977 34.848 110.409 34.776 110.841 34.632C111.285 34.476 111.639 34.284 111.903 34.056C112.035 33.948 112.185 33.894 112.353 33.894C112.521 33.882 112.665 33.924 112.785 34.02C112.941 34.164 113.019 34.32 113.019 34.488C113.031 34.656 112.965 34.8 112.821 34.92C112.425 35.256 111.921 35.538 111.309 35.766C110.697 35.982 110.109 36.09 109.545 36.09ZM109.275 27.306C108.351 27.306 107.589 27.594 106.989 28.17C106.389 28.734 106.029 29.472 105.909 30.384H112.497C112.401 29.472 112.065 28.734 111.489 28.17C110.925 27.594 110.187 27.306 109.275 27.306ZM119.81 26.154C120.122 26.154 120.35 26.31 120.494 26.622L124.4 35.118C124.484 35.286 124.49 35.448 124.418 35.604C124.358 35.748 124.244 35.862 124.076 35.946C123.668 36.126 123.368 36.024 123.176 35.64L119.864 28.224L116.462 35.622C116.378 35.802 116.246 35.922 116.066 35.982C115.898 36.03 115.724 36.012 115.544 35.928C115.376 35.844 115.256 35.73 115.184 35.586C115.124 35.43 115.13 35.268 115.202 35.1L119.162 26.622C119.306 26.31 119.522 26.154 119.81 26.154ZM131.184 36.09C130.212 36.09 129.348 35.88 128.592 35.46C127.848 35.028 127.26 34.434 126.828 33.678C126.408 32.922 126.198 32.058 126.198 31.086C126.198 30.102 126.396 29.238 126.792 28.494C127.2 27.738 127.758 27.144 128.466 26.712C129.174 26.28 129.99 26.064 130.914 26.064C131.826 26.064 132.618 26.274 133.29 26.694C133.974 27.102 134.502 27.672 134.874 28.404C135.246 29.136 135.432 29.97 135.432 30.906C135.432 31.098 135.372 31.254 135.252 31.374C135.132 31.482 134.976 31.536 134.784 31.536H127.512C127.584 32.184 127.782 32.76 128.106 33.264C128.43 33.756 128.856 34.146 129.384 34.434C129.912 34.71 130.512 34.848 131.184 34.848C131.616 34.848 132.048 34.776 132.48 34.632C132.924 34.476 133.278 34.284 133.542 34.056C133.674 33.948 133.824 33.894 133.992 33.894C134.16 33.882 134.304 33.924 134.424 34.02C134.58 34.164 134.658 34.32 134.658 34.488C134.67 34.656 134.604 34.8 134.46 34.92C134.064 35.256 133.56 35.538 132.948 35.766C132.336 35.982 131.748 36.09 131.184 36.09ZM130.914 27.306C129.99 27.306 129.228 27.594 128.628 28.17C128.028 28.734 127.668 29.472 127.548 30.384H134.136C134.04 29.472 133.704 28.734 133.128 28.17C132.564 27.594 131.826 27.306 130.914 27.306ZM138.46 36C138.256 36 138.088 35.94 137.956 35.82C137.836 35.688 137.776 35.514 137.776 35.298V26.856C137.776 26.64 137.836 26.472 137.956 26.352C138.088 26.22 138.256 26.154 138.46 26.154C138.664 26.154 138.826 26.22 138.946 26.352C139.078 26.472 139.144 26.64 139.144 26.856V30.42H145.498V26.856C145.498 26.64 145.564 26.472 145.696 26.352C145.828 26.22 145.996 26.154 146.2 26.154C146.404 26.154 146.566 26.22 146.686 26.352C146.806 26.472 146.866 26.64 146.866 26.856V35.298C146.866 35.514 146.806 35.688 146.686 35.82C146.566 35.94 146.404 36 146.2 36C145.996 36 145.828 35.94 145.696 35.82C145.564 35.688 145.498 35.514 145.498 35.298V31.662H139.144V35.298C139.144 35.514 139.078 35.688 138.946 35.82C138.826 35.94 138.664 36 138.46 36ZM154.437 36.09C153.513 36.09 152.685 35.874 151.953 35.442C151.221 34.998 150.639 34.398 150.207 33.642C149.787 32.886 149.577 32.034 149.577 31.086C149.577 30.126 149.793 29.268 150.225 28.512C150.669 27.756 151.269 27.162 152.025 26.73C152.781 26.286 153.633 26.064 154.581 26.064C155.529 26.064 156.375 26.286 157.119 26.73C157.875 27.162 158.469 27.756 158.901 28.512C159.345 29.268 159.573 30.126 159.585 31.086V35.316C159.585 35.52 159.519 35.688 159.387 35.82C159.255 35.94 159.087 36 158.883 36C158.679 36 158.511 35.94 158.379 35.82C158.247 35.688 158.181 35.52 158.181 35.316V34.218C157.773 34.794 157.245 35.25 156.597 35.586C155.949 35.922 155.229 36.09 154.437 36.09ZM154.581 34.83C155.277 34.83 155.895 34.668 156.435 34.344C156.987 34.02 157.419 33.576 157.731 33.012C158.055 32.436 158.217 31.794 158.217 31.086C158.217 30.366 158.055 29.724 157.731 29.16C157.419 28.596 156.987 28.152 156.435 27.828C155.895 27.492 155.277 27.324 154.581 27.324C153.897 27.324 153.279 27.492 152.727 27.828C152.175 28.152 151.737 28.596 151.413 29.16C151.089 29.724 150.927 30.366 150.927 31.086C150.927 31.794 151.089 32.436 151.413 33.012C151.737 33.576 152.175 34.02 152.727 34.344C153.279 34.668 153.897 34.83 154.581 34.83ZM162.046 35.82C161.902 35.688 161.83 35.544 161.83 35.388C161.842 35.232 161.902 35.082 162.01 34.938L164.134 32.256C163.51 32.064 163.012 31.716 162.64 31.212C162.268 30.696 162.082 30.084 162.082 29.376C162.082 28.752 162.226 28.2 162.514 27.72C162.814 27.228 163.228 26.844 163.756 26.568C164.284 26.292 164.89 26.154 165.574 26.154H168.778C168.994 26.154 169.162 26.22 169.282 26.352C169.414 26.472 169.48 26.64 169.48 26.856V35.316C169.468 35.52 169.396 35.688 169.264 35.82C169.144 35.94 168.982 36 168.778 36C168.586 36 168.424 35.94 168.292 35.82C168.172 35.688 168.112 35.514 168.112 35.298V32.598H165.628L163.072 35.748C162.928 35.928 162.748 36.012 162.532 36C162.328 36 162.166 35.94 162.046 35.82ZM165.574 31.41H168.112V27.432H165.574C164.962 27.432 164.452 27.612 164.044 27.972C163.636 28.32 163.432 28.788 163.432 29.376C163.432 30.012 163.636 30.51 164.044 30.87C164.452 31.23 164.962 31.41 165.574 31.41ZM98.012 56.09C97.064 56.09 96.218 55.874 95.474 55.442C94.742 54.998 94.16 54.398 93.728 53.642C93.308 52.886 93.098 52.034 93.098 51.086C93.098 50.126 93.302 49.268 93.71 48.512C94.118 47.756 94.676 47.162 95.384 46.73C96.092 46.286 96.908 46.064 97.832 46.064C99.332 46.064 100.55 46.64 101.486 47.792C101.618 47.936 101.666 48.092 101.63 48.26C101.594 48.416 101.492 48.554 101.324 48.674C101.192 48.77 101.042 48.806 100.874 48.782C100.718 48.746 100.58 48.656 100.46 48.512C99.764 47.72 98.888 47.324 97.832 47.324C97.16 47.324 96.566 47.486 96.05 47.81C95.546 48.134 95.15 48.578 94.862 49.142C94.586 49.706 94.448 50.354 94.448 51.086C94.448 51.806 94.598 52.448 94.898 53.012C95.198 53.576 95.618 54.02 96.158 54.344C96.698 54.668 97.316 54.83 98.012 54.83C98.972 54.83 99.746 54.572 100.334 54.056C100.478 53.936 100.628 53.87 100.784 53.858C100.94 53.846 101.084 53.894 101.216 54.002C101.36 54.134 101.438 54.284 101.45 54.452C101.474 54.62 101.42 54.764 101.288 54.884C100.412 55.688 99.32 56.09 98.012 56.09ZM105.045 56C104.829 56 104.655 55.94 104.523 55.82C104.403 55.688 104.343 55.52 104.343 55.316V46.856C104.343 46.652 104.403 46.484 104.523 46.352C104.655 46.22 104.829 46.154 105.045 46.154C105.249 46.154 105.411 46.22 105.531 46.352C105.663 46.484 105.729 46.652 105.729 46.856V47.252C106.065 46.868 106.461 46.574 106.917 46.37C107.373 46.154 107.877 46.046 108.429 46.046C109.101 46.046 109.695 46.196 110.211 46.496C110.739 46.796 111.159 47.21 111.471 47.738C111.807 47.21 112.257 46.796 112.821 46.496C113.385 46.196 114.015 46.046 114.711 46.046C115.419 46.046 116.043 46.214 116.583 46.55C117.135 46.886 117.561 47.36 117.861 47.972C118.173 48.584 118.329 49.304 118.329 50.132V55.316C118.329 55.52 118.263 55.688 118.131 55.82C118.011 55.94 117.849 56 117.645 56C117.441 56 117.273 55.94 117.141 55.82C117.009 55.688 116.943 55.52 116.943 55.316V50.132C116.943 49.28 116.721 48.608 116.277 48.116C115.833 47.612 115.263 47.36 114.567 47.36C113.823 47.36 113.211 47.612 112.731 48.116C112.263 48.608 112.035 49.268 112.047 50.096V50.132V55.316C112.047 55.52 111.981 55.688 111.849 55.82C111.729 55.94 111.567 56 111.363 56C111.159 56 110.991 55.94 110.859 55.82C110.727 55.688 110.661 55.52 110.661 55.316V50.132C110.661 49.28 110.439 48.608 109.995 48.116C109.551 47.612 108.981 47.36 108.285 47.36C107.541 47.36 106.929 47.606 106.449 48.098C105.969 48.578 105.729 49.208 105.729 49.988V55.316C105.729 55.52 105.663 55.688 105.531 55.82C105.411 55.94 105.249 56 105.045 56ZM122.095 60.212C121.879 60.212 121.705 60.146 121.573 60.014C121.453 59.894 121.393 59.726 121.393 59.51V51.014C121.405 50.078 121.627 49.238 122.059 48.494C122.503 47.738 123.097 47.144 123.841 46.712C124.597 46.28 125.443 46.064 126.379 46.064C127.339 46.064 128.197 46.286 128.953 46.73C129.709 47.162 130.303 47.756 130.735 48.512C131.179 49.268 131.401 50.126 131.401 51.086C131.401 52.034 131.185 52.886 130.753 53.642C130.333 54.398 129.757 54.998 129.025 55.442C128.293 55.874 127.465 56.09 126.541 56.09C125.737 56.09 125.005 55.922 124.345 55.586C123.697 55.238 123.175 54.782 122.779 54.218V59.51C122.779 59.726 122.713 59.894 122.581 60.014C122.461 60.146 122.299 60.212 122.095 60.212ZM126.379 54.83C127.075 54.83 127.699 54.668 128.251 54.344C128.803 54.02 129.235 53.576 129.547 53.012C129.871 52.436 130.033 51.794 130.033 51.086C130.033 50.366 129.871 49.724 129.547 49.16C129.235 48.596 128.803 48.152 128.251 47.828C127.699 47.492 127.075 47.324 126.379 47.324C125.695 47.324 125.077 47.492 124.525 47.828C123.973 48.152 123.541 48.596 123.229 49.16C122.917 49.724 122.761 50.366 122.761 51.086C122.761 51.794 122.917 52.436 123.229 53.012C123.541 53.576 123.973 54.02 124.525 54.344C125.077 54.668 125.695 54.83 126.379 54.83ZM138.584 56.09C137.612 56.09 136.748 55.88 135.992 55.46C135.248 55.028 134.66 54.434 134.228 53.678C133.808 52.922 133.598 52.058 133.598 51.086C133.598 50.102 133.796 49.238 134.192 48.494C134.6 47.738 135.158 47.144 135.866 46.712C136.574 46.28 137.39 46.064 138.314 46.064C139.226 46.064 140.018 46.274 140.69 46.694C141.374 47.102 141.902 47.672 142.274 48.404C142.646 49.136 142.832 49.97 142.832 50.906C142.832 51.098 142.772 51.254 142.652 51.374C142.532 51.482 142.376 51.536 142.184 51.536H134.912C134.984 52.184 135.182 52.76 135.506 53.264C135.83 53.756 136.256 54.146 136.784 54.434C137.312 54.71 137.912 54.848 138.584 54.848C139.016 54.848 139.448 54.776 139.88 54.632C140.324 54.476 140.678 54.284 140.942 54.056C141.074 53.948 141.224 53.894 141.392 53.894C141.56 53.882 141.704 53.924 141.824 54.02C141.98 54.164 142.058 54.32 142.058 54.488C142.07 54.656 142.004 54.8 141.86 54.92C141.464 55.256 140.96 55.538 140.348 55.766C139.736 55.982 139.148 56.09 138.584 56.09ZM138.314 47.306C137.39 47.306 136.628 47.594 136.028 48.17C135.428 48.734 135.068 49.472 134.948 50.384H141.536C141.44 49.472 141.104 48.734 140.528 48.17C139.964 47.594 139.226 47.306 138.314 47.306ZM148.849 46.154C149.161 46.154 149.389 46.31 149.533 46.622L153.439 55.118C153.523 55.286 153.529 55.448 153.457 55.604C153.397 55.748 153.283 55.862 153.115 55.946C152.707 56.126 152.407 56.024 152.215 55.64L148.903 48.224L145.501 55.622C145.417 55.802 145.285 55.922 145.105 55.982C144.937 56.03 144.763 56.012 144.583 55.928C144.415 55.844 144.295 55.73 144.223 55.586C144.163 55.43 144.169 55.268 144.241 55.1L148.201 46.622C148.345 46.31 148.561 46.154 148.849 46.154ZM160.097 56.09C159.173 56.09 158.345 55.874 157.613 55.442C156.881 54.998 156.299 54.398 155.867 53.642C155.447 52.886 155.237 52.034 155.237 51.086C155.237 50.126 155.453 49.268 155.885 48.512C156.329 47.756 156.929 47.162 157.685 46.73C158.441 46.286 159.293 46.064 160.241 46.064C161.189 46.064 162.035 46.286 162.779 46.73C163.535 47.162 164.129 47.756 164.561 48.512C165.005 49.268 165.233 50.126 165.245 51.086V55.316C165.245 55.52 165.179 55.688 165.047 55.82C164.915 55.94 164.747 56 164.543 56C164.339 56 164.171 55.94 164.039 55.82C163.907 55.688 163.841 55.52 163.841 55.316V54.218C163.433 54.794 162.905 55.25 162.257 55.586C161.609 55.922 160.889 56.09 160.097 56.09ZM160.241 54.83C160.937 54.83 161.555 54.668 162.095 54.344C162.647 54.02 163.079 53.576 163.391 53.012C163.715 52.436 163.877 51.794 163.877 51.086C163.877 50.366 163.715 49.724 163.391 49.16C163.079 48.596 162.647 48.152 162.095 47.828C161.555 47.492 160.937 47.324 160.241 47.324C159.557 47.324 158.939 47.492 158.387 47.828C157.835 48.152 157.397 48.596 157.073 49.16C156.749 49.724 156.587 50.366 156.587 51.086C156.587 51.794 156.749 52.436 157.073 53.012C157.397 53.576 157.835 54.02 158.387 54.344C158.939 54.668 159.557 54.83 160.241 54.83Z" fill="white"/>
</svg>
