<svg width="177" height="80" viewBox="0 0 177 80" fill="none" xmlns="http://www.w3.org/2000/svg">
<rect x="0.5" y="0.5" width="79" height="79" rx="9.5" fill="#032A14" stroke="white"/>
<path d="M50.6513 63.2917C45.3543 63.2917 37.0998 61.7918 37.0998 46.0152C37.0998 41.903 37.0648 39.1784 37.0344 37.3129C36.3921 37.4217 35.7681 37.3612 35.2752 37.2626V38.0915C35.2752 39.8221 34.9818 41.3466 34.5364 42.2563C34.0904 41.3466 33.7979 39.8221 33.7979 38.0915V36.1988C33.7979 34.4699 34.0904 32.9436 34.5364 32.0355C34.9685 32.9161 35.2515 34.3826 35.2686 36.0471C35.7197 36.1753 36.2502 36.274 37.0124 36.0296C36.9416 31.9684 36.9856 33.5839 38.0034 29.5348C38.6098 27.1219 39.2709 25.1292 40.1233 23.505C40.0368 23.1278 39.8926 22.6821 39.6397 22.2472C39.3599 21.7646 38.9534 21.3244 38.5936 20.9841C35.9646 23.156 33.797 26.5984 31.9814 32.1778C31.3784 34.0302 30.0736 35.3518 26.4609 35.8793C27.9667 37.4666 30.073 40.284 30.3754 43.7245C30.9662 50.4619 33.279 56.2521 36.4924 59.2495C39.7044 62.2461 43.4194 63.8407 48.8672 63.8407C49.8351 63.8407 53.3619 63.2917 50.6513 63.2917Z" fill="white"/>
<path d="M27.0449 52.0248C27.0449 53.0953 26.0562 53.9632 24.837 53.9632C23.6175 53.9632 22.6289 53.0953 22.6289 52.0248C22.6289 50.9541 23.6175 50.0849 24.837 50.0849C26.0562 50.0849 27.0449 50.9541 27.0449 52.0248Z" fill="white"/>
<path d="M37.7814 60.9156L37.6786 60.8398C32.3972 64.2979 26.7915 63.3965 23.3762 61.3747C21.3239 60.1587 19.8946 58.1624 19.352 55.7539C18.8313 53.4422 19.2213 51.1113 20.3943 49.5188C21.5754 47.9168 23.8575 47.0207 26.0841 47.2904C27.8757 47.5078 29.2033 48.4454 29.7269 49.862C30.1619 51.0411 30.1283 52.095 29.6274 52.9949C29.0727 53.9909 28.0648 54.5827 27.306 54.8048C26.3342 55.09 25.1534 54.9595 24.3685 54.4826C23.713 54.0832 23.3468 53.4826 23.2802 52.696C23.2271 52.0626 23.4282 51.6139 23.8789 51.3622C24.3876 51.0809 25.1308 51.1113 25.5052 51.3167L25.9737 50.6134C25.3681 50.2802 24.2613 50.1853 23.404 50.6622C22.9745 50.9021 22.2697 51.4933 22.3767 52.7589C22.464 53.7941 22.9785 54.6262 23.8633 55.1653C24.8834 55.7859 26.3422 55.9521 27.5846 55.5877C28.5174 55.3142 29.7557 54.5874 30.4362 53.3659C31.0504 52.2631 31.1013 50.9965 30.5865 49.6006C29.9489 47.8748 28.3518 46.7359 26.2044 46.4756C23.6505 46.1659 21.0103 47.2044 19.641 49.0623C18.3362 50.8326 17.896 53.3958 18.464 55.918C19.0551 58.5438 20.6241 60.7258 22.8811 62.0627C24.7849 63.1904 27.3204 64 30.1093 64C32.7579 64 35.6338 63.2562 38.4128 61.3742C38.2151 61.2352 38.0037 61.0808 37.7814 60.9156Z" fill="white"/>
<path d="M46.8116 36.326C45.5666 37.3388 44.2916 38.0946 41.9349 37.3905C40.7307 37.0301 40.4333 36.5455 39.5747 36.2764C39.3476 36.4186 39.0611 36.577 38.7874 36.7213C42.0332 37.9704 42.3971 41.6645 42.7582 45.411C43.2603 50.6129 42.7975 55.0065 40.6888 58.2727C39.9352 59.4425 37.7792 60.4036 38.1008 59.899C39.3279 60.1132 38.6833 61.5837 40.4078 61.1488C42.7975 60.546 46.9117 58.1384 47.7065 51.636C48.3732 46.2062 48.3044 39.898 46.8116 36.326Z" fill="white"/>
<path d="M54.0812 26.9865C54.4149 27.7677 56.8532 26.8938 56.0474 25.0106C55.7462 24.3052 54.5319 23.3864 53.0474 23.6448C51.0768 23.9884 49.7286 25.8938 50.8408 28.1402C51.953 30.3845 54.7154 31.2597 57.6664 30.1664C61.2576 28.8361 62.3017 23.2448 57.548 19.8226C52.3866 16.1051 44.471 18.0535 41.9062 20.4716" stroke="white" stroke-width="1.63316"/>
<path d="M52.2461 26.1113C52.2461 27.1819 53.2347 28.0497 54.4527 28.0497C55.673 28.0497 56.6623 27.1819 56.6623 26.1113C56.6623 25.0402 55.673 24.173 54.4527 24.173C53.2347 24.173 52.2461 25.0402 52.2461 26.1113Z" fill="white"/>
<path d="M54.2422 52.0248C54.2422 53.0953 55.2315 53.9632 56.4511 53.9632C57.6698 53.9632 58.6584 53.0953 58.6584 52.0248C58.6584 50.9541 57.6698 50.0849 56.4511 50.0849C55.2315 50.0849 54.2422 50.9541 54.2422 52.0248Z" fill="white"/>
<path d="M55.5465 50.9649C56.4367 50.4776 58.6293 50.6862 58.4576 52.7273C58.2563 55.1076 55.5953 55.7096 53.8401 55.1959C52.3349 54.755 49.9248 52.9929 51.1295 49.7313C52.5392 45.9133 58.408 46.0071 60.8537 49.3263C63.2993 52.6439 61.6854 58.8848 56.9414 61.6917C52.6265 64.2477 45.5711 64.588 40.8016 60.0442C36.6846 56.1204 36.3692 48.4511 36.5921 43.4734" stroke="white" stroke-width="1.63316"/>
<path d="M17.7188 19.2203C18.577 18.2202 20.8938 18.2947 21.9361 19.3639C23.6214 21.0929 20.8007 23.3018 21.9963 23.681C21.1363 24.9468 20.9394 27.4738 21.6771 28.2531C22.2283 28.8384 22.8501 29.8599 23.8514 30.5002C24.1847 30.711 24.3564 30.9298 24.786 31.0271C21.7811 30.6298 20.272 28.3122 20.026 26.6805C19.5742 23.6696 20.1439 22.9736 20.0815 21.4352C20.0197 19.9499 18.8236 19.3163 17.7188 19.2203Z" fill="white"/>
<path d="M19.7969 38.3179C21.8944 37.5809 24.7236 39.7648 23.8218 42.8371C22.7274 46.5684 18.5722 48.1499 19.2263 50.1925C17.9348 52.467 18.5878 53.6896 18.924 55.4525C19.3555 57.7178 21.1946 60.543 23.5027 62.323C20.565 61.1584 17 56.9207 17 51.8863C17 47.087 20.4592 44.3884 20.985 42.0636C21.2431 40.9228 21.2703 39.8282 19.7969 38.3179Z" fill="white"/>
<path d="M60.9332 38.2248C58.7592 37.4898 55.8214 39.6733 56.7567 42.7453C57.8919 46.4765 62.206 48.0584 61.5267 50.1006C62.869 52.3745 62.1897 53.5981 61.8405 55.3605C61.3935 57.6249 59.4836 60.4518 57.0875 62.231C60.1363 61.0645 63.8392 56.8292 63.8392 51.7948C63.8392 46.9953 60.2473 44.2969 59.7012 41.9706C59.4348 40.8314 59.4052 39.7368 60.9332 38.2248Z" fill="white"/>
<path d="M56.1253 30.8127C58.9817 33.4007 53.7966 35.0954 53.5464 36.6364C53.3629 37.768 54.006 38.0109 55.204 38.7395C51.9799 40.2761 49.0924 37.1223 50.6901 34.2101C52.0065 31.8093 55.389 31.8637 54.6527 30.8127C56.6174 30.9207 56.1253 30.8127 56.1253 30.8127Z" fill="white"/>
<path d="M29.0504 26.1113C29.0504 27.1819 28.0615 28.0497 26.8429 28.0497C25.6227 28.0497 24.6348 27.1819 24.6348 26.1113C24.6348 25.0402 25.6227 24.173 26.8429 24.173C28.0615 24.173 29.0504 25.0402 29.0504 26.1113Z" fill="white"/>
<path d="M40.684 21.2853L40.9557 22.1343C42.4418 20.0209 44.4669 18.7336 47.5388 18.1658C50.0103 17.7087 48.8434 17.3725 48.8434 17.3725C45.184 17.743 42.0911 18.4866 39.4434 20.3397L40.684 21.2853Z" fill="white"/>
<path d="M27.3984 18.2254C34.7399 17.1508 37.4106 19.3812 37.704 19.6557C41.2472 22.9586 41.1802 25.3722 41.1802 28.5141C41.1802 31.017 40.8304 33.2111 38.9576 35.0837C37.1793 36.861 35.3831 36.2845 35.0758 36.1643C34.7325 36.0301 34.6839 35.718 35.0417 35.4924C35.0253 35.334 35.0163 35.1394 34.973 34.9018C33.7652 35.0065 33.6994 36.6328 34.8319 36.9577C38.2957 37.9477 40.3477 35.2414 42.0806 33.6279C43.6351 32.1781 44.8619 30.7747 46.6437 30.8223C46.9116 29.8135 47.2699 28.2557 46.6119 25.481C45.3819 20.2839 41.7111 17.865 36.7564 17.2327C29.9205 16.3595 27.3984 18.2254 27.3984 18.2254Z" fill="white"/>
<path d="M27.2166 26.9867C26.8839 27.7679 24.4451 26.894 25.2502 25.0106C25.5511 24.3052 26.766 23.3863 28.2485 23.6447C30.2193 23.9884 31.5689 25.894 30.4564 28.1405C29.3458 30.385 26.3425 31.6656 23.6317 30.1668C21.1464 28.7929 20.0301 24.077 24.9362 20.1182C29.8542 16.1528 36.8284 18.0529 39.3908 20.4713" stroke="white" stroke-width="1.63316"/>
<path d="M37.166 35.0926C37.166 35.2605 37.1903 35.6239 37.1903 35.7166C37.3452 35.7562 37.5843 35.8354 37.5843 35.8354C37.5843 35.8354 38.0268 35.6084 38.1742 35.4942C38.0453 35.4203 37.6502 35.2088 37.166 35.0926Z" fill="white"/>
<path d="M98.616 36.18C97.692 36.18 96.816 36.018 95.988 35.694C95.16 35.358 94.524 34.89 94.08 34.29C94.008 34.134 93.978 33.972 93.99 33.804C94.002 33.624 94.08 33.474 94.224 33.354C94.368 33.246 94.524 33.204 94.692 33.228C94.872 33.252 95.022 33.342 95.142 33.498C95.538 33.918 96.036 34.254 96.636 34.506C97.236 34.746 97.896 34.866 98.616 34.866C99.6 34.866 100.41 34.614 101.046 34.11C101.682 33.594 102 32.886 102 31.986C102 31.098 101.73 30.408 101.19 29.916C100.662 29.424 99.978 29.178 99.138 29.178H98.022C97.83 29.178 97.674 29.124 97.554 29.016C97.434 28.896 97.374 28.746 97.374 28.566C97.374 28.374 97.434 28.224 97.554 28.116C97.674 27.996 97.824 27.936 98.004 27.936H99.012C99.696 27.936 100.26 27.714 100.704 27.27C101.16 26.826 101.388 26.208 101.388 25.416C101.388 24.636 101.118 24.054 100.578 23.67C100.038 23.274 99.342 23.076 98.49 23.076C97.854 23.076 97.278 23.196 96.762 23.436C96.246 23.676 95.826 24.012 95.502 24.444C95.37 24.624 95.214 24.738 95.034 24.786C94.866 24.834 94.698 24.804 94.53 24.696C94.374 24.6 94.272 24.468 94.224 24.3C94.188 24.12 94.23 23.952 94.35 23.796C94.794 23.208 95.352 22.728 96.024 22.356C96.708 21.972 97.53 21.78 98.49 21.78C99.33 21.78 100.068 21.936 100.704 22.248C101.352 22.548 101.856 22.968 102.216 23.508C102.588 24.048 102.774 24.66 102.774 25.344C102.774 26.1 102.558 26.754 102.126 27.306C101.694 27.846 101.19 28.236 100.614 28.476C101.094 28.62 101.544 28.854 101.964 29.178C102.384 29.49 102.72 29.886 102.972 30.366C103.236 30.834 103.368 31.386 103.368 32.022C103.368 32.826 103.164 33.54 102.756 34.164C102.348 34.788 101.784 35.28 101.064 35.64C100.356 36 99.54 36.18 98.616 36.18ZM110.545 36.09C109.573 36.09 108.709 35.88 107.953 35.46C107.209 35.028 106.621 34.434 106.189 33.678C105.769 32.922 105.559 32.058 105.559 31.086C105.559 30.102 105.757 29.238 106.153 28.494C106.561 27.738 107.119 27.144 107.827 26.712C108.535 26.28 109.351 26.064 110.275 26.064C111.187 26.064 111.979 26.274 112.651 26.694C113.335 27.102 113.863 27.672 114.235 28.404C114.607 29.136 114.793 29.97 114.793 30.906C114.793 31.098 114.733 31.254 114.613 31.374C114.493 31.482 114.337 31.536 114.145 31.536H106.873C106.945 32.184 107.143 32.76 107.467 33.264C107.791 33.756 108.217 34.146 108.745 34.434C109.273 34.71 109.873 34.848 110.545 34.848C110.977 34.848 111.409 34.776 111.841 34.632C112.285 34.476 112.639 34.284 112.903 34.056C113.035 33.948 113.185 33.894 113.353 33.894C113.521 33.882 113.665 33.924 113.785 34.02C113.941 34.164 114.019 34.32 114.019 34.488C114.031 34.656 113.965 34.8 113.821 34.92C113.425 35.256 112.921 35.538 112.309 35.766C111.697 35.982 111.109 36.09 110.545 36.09ZM110.275 27.306C109.351 27.306 108.589 27.594 107.989 28.17C107.389 28.734 107.029 29.472 106.909 30.384H113.497C113.401 29.472 113.065 28.734 112.489 28.17C111.925 27.594 111.187 27.306 110.275 27.306ZM120.81 26.154C121.122 26.154 121.35 26.31 121.494 26.622L125.4 35.118C125.484 35.286 125.49 35.448 125.418 35.604C125.358 35.748 125.244 35.862 125.076 35.946C124.668 36.126 124.368 36.024 124.176 35.64L120.864 28.224L117.462 35.622C117.378 35.802 117.246 35.922 117.066 35.982C116.898 36.03 116.724 36.012 116.544 35.928C116.376 35.844 116.256 35.73 116.184 35.586C116.124 35.43 116.13 35.268 116.202 35.1L120.162 26.622C120.306 26.31 120.522 26.154 120.81 26.154ZM132.184 36.09C131.212 36.09 130.348 35.88 129.592 35.46C128.848 35.028 128.26 34.434 127.828 33.678C127.408 32.922 127.198 32.058 127.198 31.086C127.198 30.102 127.396 29.238 127.792 28.494C128.2 27.738 128.758 27.144 129.466 26.712C130.174 26.28 130.99 26.064 131.914 26.064C132.826 26.064 133.618 26.274 134.29 26.694C134.974 27.102 135.502 27.672 135.874 28.404C136.246 29.136 136.432 29.97 136.432 30.906C136.432 31.098 136.372 31.254 136.252 31.374C136.132 31.482 135.976 31.536 135.784 31.536H128.512C128.584 32.184 128.782 32.76 129.106 33.264C129.43 33.756 129.856 34.146 130.384 34.434C130.912 34.71 131.512 34.848 132.184 34.848C132.616 34.848 133.048 34.776 133.48 34.632C133.924 34.476 134.278 34.284 134.542 34.056C134.674 33.948 134.824 33.894 134.992 33.894C135.16 33.882 135.304 33.924 135.424 34.02C135.58 34.164 135.658 34.32 135.658 34.488C135.67 34.656 135.604 34.8 135.46 34.92C135.064 35.256 134.56 35.538 133.948 35.766C133.336 35.982 132.748 36.09 132.184 36.09ZM131.914 27.306C130.99 27.306 130.228 27.594 129.628 28.17C129.028 28.734 128.668 29.472 128.548 30.384H135.136C135.04 29.472 134.704 28.734 134.128 28.17C133.564 27.594 132.826 27.306 131.914 27.306ZM139.46 36C139.256 36 139.088 35.94 138.956 35.82C138.836 35.688 138.776 35.514 138.776 35.298V26.856C138.776 26.64 138.836 26.472 138.956 26.352C139.088 26.22 139.256 26.154 139.46 26.154C139.664 26.154 139.826 26.22 139.946 26.352C140.078 26.472 140.144 26.64 140.144 26.856V30.42H146.498V26.856C146.498 26.64 146.564 26.472 146.696 26.352C146.828 26.22 146.996 26.154 147.2 26.154C147.404 26.154 147.566 26.22 147.686 26.352C147.806 26.472 147.866 26.64 147.866 26.856V35.298C147.866 35.514 147.806 35.688 147.686 35.82C147.566 35.94 147.404 36 147.2 36C146.996 36 146.828 35.94 146.696 35.82C146.564 35.688 146.498 35.514 146.498 35.298V31.662H140.144V35.298C140.144 35.514 140.078 35.688 139.946 35.82C139.826 35.94 139.664 36 139.46 36ZM155.437 36.09C154.513 36.09 153.685 35.874 152.953 35.442C152.221 34.998 151.639 34.398 151.207 33.642C150.787 32.886 150.577 32.034 150.577 31.086C150.577 30.126 150.793 29.268 151.225 28.512C151.669 27.756 152.269 27.162 153.025 26.73C153.781 26.286 154.633 26.064 155.581 26.064C156.529 26.064 157.375 26.286 158.119 26.73C158.875 27.162 159.469 27.756 159.901 28.512C160.345 29.268 160.573 30.126 160.585 31.086V35.316C160.585 35.52 160.519 35.688 160.387 35.82C160.255 35.94 160.087 36 159.883 36C159.679 36 159.511 35.94 159.379 35.82C159.247 35.688 159.181 35.52 159.181 35.316V34.218C158.773 34.794 158.245 35.25 157.597 35.586C156.949 35.922 156.229 36.09 155.437 36.09ZM155.581 34.83C156.277 34.83 156.895 34.668 157.435 34.344C157.987 34.02 158.419 33.576 158.731 33.012C159.055 32.436 159.217 31.794 159.217 31.086C159.217 30.366 159.055 29.724 158.731 29.16C158.419 28.596 157.987 28.152 157.435 27.828C156.895 27.492 156.277 27.324 155.581 27.324C154.897 27.324 154.279 27.492 153.727 27.828C153.175 28.152 152.737 28.596 152.413 29.16C152.089 29.724 151.927 30.366 151.927 31.086C151.927 31.794 152.089 32.436 152.413 33.012C152.737 33.576 153.175 34.02 153.727 34.344C154.279 34.668 154.897 34.83 155.581 34.83ZM163.046 35.82C162.902 35.688 162.83 35.544 162.83 35.388C162.842 35.232 162.902 35.082 163.01 34.938L165.134 32.256C164.51 32.064 164.012 31.716 163.64 31.212C163.268 30.696 163.082 30.084 163.082 29.376C163.082 28.752 163.226 28.2 163.514 27.72C163.814 27.228 164.228 26.844 164.756 26.568C165.284 26.292 165.89 26.154 166.574 26.154H169.778C169.994 26.154 170.162 26.22 170.282 26.352C170.414 26.472 170.48 26.64 170.48 26.856V35.316C170.468 35.52 170.396 35.688 170.264 35.82C170.144 35.94 169.982 36 169.778 36C169.586 36 169.424 35.94 169.292 35.82C169.172 35.688 169.112 35.514 169.112 35.298V32.598H166.628L164.072 35.748C163.928 35.928 163.748 36.012 163.532 36C163.328 36 163.166 35.94 163.046 35.82ZM166.574 31.41H169.112V27.432H166.574C165.962 27.432 165.452 27.612 165.044 27.972C164.636 28.32 164.432 28.788 164.432 29.376C164.432 30.012 164.636 30.51 165.044 30.87C165.452 31.23 165.962 31.41 166.574 31.41ZM99.012 56.09C98.064 56.09 97.218 55.874 96.474 55.442C95.742 54.998 95.16 54.398 94.728 53.642C94.308 52.886 94.098 52.034 94.098 51.086C94.098 50.126 94.302 49.268 94.71 48.512C95.118 47.756 95.676 47.162 96.384 46.73C97.092 46.286 97.908 46.064 98.832 46.064C100.332 46.064 101.55 46.64 102.486 47.792C102.618 47.936 102.666 48.092 102.63 48.26C102.594 48.416 102.492 48.554 102.324 48.674C102.192 48.77 102.042 48.806 101.874 48.782C101.718 48.746 101.58 48.656 101.46 48.512C100.764 47.72 99.888 47.324 98.832 47.324C98.16 47.324 97.566 47.486 97.05 47.81C96.546 48.134 96.15 48.578 95.862 49.142C95.586 49.706 95.448 50.354 95.448 51.086C95.448 51.806 95.598 52.448 95.898 53.012C96.198 53.576 96.618 54.02 97.158 54.344C97.698 54.668 98.316 54.83 99.012 54.83C99.972 54.83 100.746 54.572 101.334 54.056C101.478 53.936 101.628 53.87 101.784 53.858C101.94 53.846 102.084 53.894 102.216 54.002C102.36 54.134 102.438 54.284 102.45 54.452C102.474 54.62 102.42 54.764 102.288 54.884C101.412 55.688 100.32 56.09 99.012 56.09ZM106.045 56C105.829 56 105.655 55.94 105.523 55.82C105.403 55.688 105.343 55.52 105.343 55.316V46.856C105.343 46.652 105.403 46.484 105.523 46.352C105.655 46.22 105.829 46.154 106.045 46.154C106.249 46.154 106.411 46.22 106.531 46.352C106.663 46.484 106.729 46.652 106.729 46.856V47.252C107.065 46.868 107.461 46.574 107.917 46.37C108.373 46.154 108.877 46.046 109.429 46.046C110.101 46.046 110.695 46.196 111.211 46.496C111.739 46.796 112.159 47.21 112.471 47.738C112.807 47.21 113.257 46.796 113.821 46.496C114.385 46.196 115.015 46.046 115.711 46.046C116.419 46.046 117.043 46.214 117.583 46.55C118.135 46.886 118.561 47.36 118.861 47.972C119.173 48.584 119.329 49.304 119.329 50.132V55.316C119.329 55.52 119.263 55.688 119.131 55.82C119.011 55.94 118.849 56 118.645 56C118.441 56 118.273 55.94 118.141 55.82C118.009 55.688 117.943 55.52 117.943 55.316V50.132C117.943 49.28 117.721 48.608 117.277 48.116C116.833 47.612 116.263 47.36 115.567 47.36C114.823 47.36 114.211 47.612 113.731 48.116C113.263 48.608 113.035 49.268 113.047 50.096V50.132V55.316C113.047 55.52 112.981 55.688 112.849 55.82C112.729 55.94 112.567 56 112.363 56C112.159 56 111.991 55.94 111.859 55.82C111.727 55.688 111.661 55.52 111.661 55.316V50.132C111.661 49.28 111.439 48.608 110.995 48.116C110.551 47.612 109.981 47.36 109.285 47.36C108.541 47.36 107.929 47.606 107.449 48.098C106.969 48.578 106.729 49.208 106.729 49.988V55.316C106.729 55.52 106.663 55.688 106.531 55.82C106.411 55.94 106.249 56 106.045 56ZM123.095 60.212C122.879 60.212 122.705 60.146 122.573 60.014C122.453 59.894 122.393 59.726 122.393 59.51V51.014C122.405 50.078 122.627 49.238 123.059 48.494C123.503 47.738 124.097 47.144 124.841 46.712C125.597 46.28 126.443 46.064 127.379 46.064C128.339 46.064 129.197 46.286 129.953 46.73C130.709 47.162 131.303 47.756 131.735 48.512C132.179 49.268 132.401 50.126 132.401 51.086C132.401 52.034 132.185 52.886 131.753 53.642C131.333 54.398 130.757 54.998 130.025 55.442C129.293 55.874 128.465 56.09 127.541 56.09C126.737 56.09 126.005 55.922 125.345 55.586C124.697 55.238 124.175 54.782 123.779 54.218V59.51C123.779 59.726 123.713 59.894 123.581 60.014C123.461 60.146 123.299 60.212 123.095 60.212ZM127.379 54.83C128.075 54.83 128.699 54.668 129.251 54.344C129.803 54.02 130.235 53.576 130.547 53.012C130.871 52.436 131.033 51.794 131.033 51.086C131.033 50.366 130.871 49.724 130.547 49.16C130.235 48.596 129.803 48.152 129.251 47.828C128.699 47.492 128.075 47.324 127.379 47.324C126.695 47.324 126.077 47.492 125.525 47.828C124.973 48.152 124.541 48.596 124.229 49.16C123.917 49.724 123.761 50.366 123.761 51.086C123.761 51.794 123.917 52.436 124.229 53.012C124.541 53.576 124.973 54.02 125.525 54.344C126.077 54.668 126.695 54.83 127.379 54.83ZM139.584 56.09C138.612 56.09 137.748 55.88 136.992 55.46C136.248 55.028 135.66 54.434 135.228 53.678C134.808 52.922 134.598 52.058 134.598 51.086C134.598 50.102 134.796 49.238 135.192 48.494C135.6 47.738 136.158 47.144 136.866 46.712C137.574 46.28 138.39 46.064 139.314 46.064C140.226 46.064 141.018 46.274 141.69 46.694C142.374 47.102 142.902 47.672 143.274 48.404C143.646 49.136 143.832 49.97 143.832 50.906C143.832 51.098 143.772 51.254 143.652 51.374C143.532 51.482 143.376 51.536 143.184 51.536H135.912C135.984 52.184 136.182 52.76 136.506 53.264C136.83 53.756 137.256 54.146 137.784 54.434C138.312 54.71 138.912 54.848 139.584 54.848C140.016 54.848 140.448 54.776 140.88 54.632C141.324 54.476 141.678 54.284 141.942 54.056C142.074 53.948 142.224 53.894 142.392 53.894C142.56 53.882 142.704 53.924 142.824 54.02C142.98 54.164 143.058 54.32 143.058 54.488C143.07 54.656 143.004 54.8 142.86 54.92C142.464 55.256 141.96 55.538 141.348 55.766C140.736 55.982 140.148 56.09 139.584 56.09ZM139.314 47.306C138.39 47.306 137.628 47.594 137.028 48.17C136.428 48.734 136.068 49.472 135.948 50.384H142.536C142.44 49.472 142.104 48.734 141.528 48.17C140.964 47.594 140.226 47.306 139.314 47.306ZM149.849 46.154C150.161 46.154 150.389 46.31 150.533 46.622L154.439 55.118C154.523 55.286 154.529 55.448 154.457 55.604C154.397 55.748 154.283 55.862 154.115 55.946C153.707 56.126 153.407 56.024 153.215 55.64L149.903 48.224L146.501 55.622C146.417 55.802 146.285 55.922 146.105 55.982C145.937 56.03 145.763 56.012 145.583 55.928C145.415 55.844 145.295 55.73 145.223 55.586C145.163 55.43 145.169 55.268 145.241 55.1L149.201 46.622C149.345 46.31 149.561 46.154 149.849 46.154ZM161.097 56.09C160.173 56.09 159.345 55.874 158.613 55.442C157.881 54.998 157.299 54.398 156.867 53.642C156.447 52.886 156.237 52.034 156.237 51.086C156.237 50.126 156.453 49.268 156.885 48.512C157.329 47.756 157.929 47.162 158.685 46.73C159.441 46.286 160.293 46.064 161.241 46.064C162.189 46.064 163.035 46.286 163.779 46.73C164.535 47.162 165.129 47.756 165.561 48.512C166.005 49.268 166.233 50.126 166.245 51.086V55.316C166.245 55.52 166.179 55.688 166.047 55.82C165.915 55.94 165.747 56 165.543 56C165.339 56 165.171 55.94 165.039 55.82C164.907 55.688 164.841 55.52 164.841 55.316V54.218C164.433 54.794 163.905 55.25 163.257 55.586C162.609 55.922 161.889 56.09 161.097 56.09ZM161.241 54.83C161.937 54.83 162.555 54.668 163.095 54.344C163.647 54.02 164.079 53.576 164.391 53.012C164.715 52.436 164.877 51.794 164.877 51.086C164.877 50.366 164.715 49.724 164.391 49.16C164.079 48.596 163.647 48.152 163.095 47.828C162.555 47.492 161.937 47.324 161.241 47.324C160.557 47.324 159.939 47.492 159.387 47.828C158.835 48.152 158.397 48.596 158.073 49.16C157.749 49.724 157.587 50.366 157.587 51.086C157.587 51.794 157.749 52.436 158.073 53.012C158.397 53.576 158.835 54.02 159.387 54.344C159.939 54.668 160.557 54.83 161.241 54.83Z" fill="white"/>
</svg>
